<svg width="93" height="84" viewBox="0 0 93 84" fill="none" xmlns="http://www.w3.org/2000/svg">
<path d="M31.7021 71.154C32.2548 71.6516 32.8807 72.0612 33.5578 72.3686C33.7445 72.4589 33.9386 72.5447 34.1403 72.626C35.8166 73.3118 37.6233 73.6201 39.4321 73.529H39.5224C40.332 73.4854 41.1197 73.2502 41.8207 72.8427C42.3189 72.5402 42.6946 72.0718 42.8817 71.5198C42.957 71.3042 43.057 71.0982 43.1797 70.9057C43.5638 70.3353 44.0292 69.8241 44.5614 69.3886C45.7308 68.3636 47.3924 67.2439 49.2662 65.8983C54.4 62.223 61.1412 56.868 63.9225 47.1287C66.5865 37.8093 64.9701 25.3112 53.3344 21.4913L53.0635 21.4056C41.5227 17.7573 30.1489 23.311 26.5277 36.1341C23.0645 48.3929 29.8554 59.0217 30.9616 65.5145C31.198 66.5864 31.1654 67.7002 30.8668 68.7565L30.8397 68.8513C30.6094 69.6685 30.9751 70.4632 31.7021 71.154Z" fill="#FFAE00"/>
<path opacity="0.75" d="M33.1334 74.5495C33.1334 74.5495 39.6578 47.8196 35.2555 45.6523C30.8532 43.485 30.2572 50.023 33.2101 51.8742C37.1835 54.3711 44.0918 55.2109 45.2161 50.5196C46.092 46.8669 41.5091 45.878 40.2854 49.6572C39.4592 52.2219 41.0033 54.5788 44.322 55.369C49.9389 56.701 53.8852 54.9175 52.1378 50.8538C51.1806 48.6278 48.2231 49.5669 47.5955 52.4025C46.9679 55.238 38.809 76.1886 38.809 76.1886" stroke="white" stroke-width="3.06" stroke-linecap="round" stroke-linejoin="round"/>
<path d="M33.6077 82.8756L33.1561 82.7401C31.4057 82.2391 29.9258 81.0635 29.0419 79.4717C28.1579 77.88 27.9423 76.0023 28.4423 74.2516C28.4423 74.2516 29.8872 65.8713 30.9347 65.5146C31.9822 65.1579 44.3448 68.7204 44.6157 69.4248C44.8866 70.1292 42.1188 78.1572 42.1188 78.1572C41.8713 79.0268 41.4546 79.8391 40.8925 80.5473C40.3304 81.2555 39.634 81.8457 38.8432 82.2841C38.0524 82.7225 37.1829 83.0004 36.2844 83.1019C35.386 83.2034 34.4763 83.1265 33.6077 82.8756Z" fill="#3B3B4C"/>
<path d="M28.848 69.7058L28.8799 69.5143C28.9679 68.9854 29.468 68.6281 29.9969 68.7161L43.8041 71.0142C44.3329 71.1023 44.6903 71.6024 44.6023 72.1312L44.5704 72.3228C44.4824 72.8516 43.9823 73.209 43.4534 73.121L29.6462 70.8228C29.1174 70.7348 28.76 70.2347 28.848 69.7058Z" fill="#AAAAAF"/>
<path d="M28.0509 72.7803L28.0827 72.5888C28.1706 72.0599 28.6706 71.7023 29.1994 71.7902L43.0074 74.0835C43.5363 74.1713 43.8939 74.6713 43.806 75.2002L43.7742 75.3917C43.6864 75.9206 43.1864 76.2782 42.6575 76.1903L28.8495 73.897C28.3206 73.8091 27.9631 73.3092 28.0509 72.7803Z" fill="#AAAAAF"/>
<path d="M27.317 75.8776L27.3489 75.686C27.4369 75.1571 27.937 74.7998 28.4659 74.8878L42.2731 77.1859C42.8019 77.274 43.1593 77.7741 43.0713 78.3029L43.0394 78.4945C42.9514 79.0233 42.4513 79.3807 41.9224 79.2926L28.1153 76.9945C27.5864 76.9065 27.229 76.4064 27.317 75.8776Z" fill="#AAAAAF"/>
<g opacity="0.65">
<path opacity="0.65" d="M41.2834 29.5917C42.1187 29.4021 42.7283 29.1854 43.2791 29.0499C43.7189 28.9229 44.1762 28.8665 44.6337 28.8828C44.8889 28.9048 45.146 28.8762 45.3903 28.7988C45.6345 28.7214 45.8611 28.5966 46.0571 28.4316C46.2531 28.2667 46.4147 28.0647 46.5326 27.8372C46.6506 27.6098 46.7226 27.3614 46.7445 27.1061C46.7665 26.8509 46.7379 26.5938 46.6605 26.3495C46.5831 26.1053 46.4583 25.8787 46.2933 25.6827C46.1283 25.4867 45.9264 25.3251 45.6989 25.2071C45.4715 25.0892 45.2231 25.0172 44.9678 24.9953H44.9181C44.0407 24.9504 43.1619 25.0511 42.3174 25.2933C41.5814 25.4874 40.9267 25.7177 40.4661 25.8215H40.439C39.9509 25.9449 39.5302 26.2538 39.2665 26.6826C39.0027 27.1114 38.9167 27.6262 39.0267 28.1175C39.1367 28.6087 39.4341 29.0377 39.8556 29.313C40.277 29.5883 40.7893 29.6883 41.2834 29.5917Z" fill="white"/>
<path opacity="0.65" d="M33.26 40.1346C33.457 38.528 33.9033 36.962 34.5829 35.493C35.2873 34.0538 36.2378 32.7489 37.3914 31.637C37.7506 31.2855 37.9556 30.8057 37.9611 30.3032C37.9666 29.8006 37.7722 29.3164 37.4208 28.9572C37.0693 28.5979 36.5895 28.393 36.0869 28.3875C35.5844 28.382 35.1002 28.5764 34.741 28.9278C33.2639 30.3339 32.0418 31.9853 31.1288 33.8088C30.2637 35.6323 29.6864 37.5789 29.4176 39.5792C29.353 40.0821 29.4886 40.5903 29.7952 40.9941C30.1018 41.3979 30.5548 41.665 31.0566 41.7379C31.5584 41.8108 32.0687 41.6835 32.4775 41.3836C32.8863 41.0837 33.1608 40.6351 33.2419 40.1346H33.26Z" fill="white"/>
</g>
<path opacity="0.12" d="M49.2708 65.8894C54.4045 62.214 61.1457 56.859 63.9271 47.1197C66.5911 37.8003 64.9746 25.3022 53.339 21.4824L53.068 21.3966C64.4689 44.8756 59.8138 51.1427 49.2708 65.8894Z" fill="#E84E19"/>
<path d="M70.0903 50.3752L91.5375 52.2806C91.7046 52.2997 91.8724 52.2518 92.004 52.1472C92.1357 52.0426 92.2205 51.89 92.2396 51.723C92.2588 51.5559 92.2108 51.3881 92.1062 51.2564C92.0017 51.1248 91.8491 51.04 91.682 51.0209L70.3612 48.0318C70.0604 48.0071 69.7615 48.0983 69.5257 48.2868C69.2899 48.4753 69.1351 48.7468 69.0929 49.0457C69.0508 49.3446 69.1246 49.6484 69.2991 49.8947C69.4736 50.141 69.7357 50.3113 70.0316 50.3707L70.0903 50.3752Z" fill="white"/>
<path d="M71.6073 34.6487L91.8038 29.3614C91.9307 29.3274 92.0391 29.245 92.1058 29.1318C92.1725 29.0187 92.1922 28.8839 92.1605 28.7564C92.1294 28.6342 92.0526 28.5286 91.9459 28.4614C91.8392 28.3941 91.7107 28.3704 91.5871 28.3952L71.0835 32.3505C70.7764 32.4104 70.5056 32.5898 70.3307 32.8493C70.1559 33.1089 70.0913 33.4272 70.1512 33.7344C70.211 34.0416 70.3905 34.3123 70.65 34.4872C70.9096 34.6621 71.2279 34.7267 71.535 34.6668L71.6073 34.6487Z" fill="white"/>
<path d="M65.6564 21.4914L75.6712 10.542C75.7574 10.4564 75.8061 10.34 75.8065 10.2185C75.8069 10.097 75.7591 9.98032 75.6734 9.8941C75.5878 9.80788 75.4715 9.75922 75.35 9.75879C75.2284 9.75837 75.1117 9.80624 75.0255 9.89186L63.9949 19.8253C63.7806 20.0395 63.6566 20.3278 63.6486 20.6307C63.6406 20.9336 63.7491 21.228 63.9517 21.4533C64.1544 21.6785 64.4358 21.8174 64.7379 21.8413C65.0399 21.8652 65.3396 21.7723 65.5752 21.5817C65.6062 21.5554 65.6335 21.525 65.6564 21.4914Z" fill="white"/>
<path d="M53.375 15.098L55.3887 0.960875C55.3982 0.893107 55.394 0.824116 55.3762 0.75803C55.3585 0.691943 55.3276 0.630105 55.2855 0.576184C55.2434 0.522263 55.1908 0.477366 55.131 0.444165C55.0712 0.410964 55.0053 0.39013 54.9372 0.382916C54.8112 0.365915 54.6833 0.39619 54.5782 0.467893C54.4732 0.539595 54.3984 0.647653 54.3683 0.77123L51.0406 14.6555C50.9838 14.9542 51.0442 15.2633 51.2092 15.5187C51.3743 15.7741 51.6313 15.9562 51.927 16.027C52.2227 16.0979 52.5343 16.0522 52.7972 15.8994C53.0601 15.7465 53.2541 15.4984 53.3389 15.2063C53.3528 15.1709 53.3649 15.1347 53.375 15.098Z" fill="white"/>
<path d="M41.4232 14.4115L38.5516 0.414338C38.5318 0.286205 38.462 0.171166 38.3574 0.0945342C38.2528 0.017902 38.1221 -0.014046 37.994 0.00571282C37.8658 0.0254717 37.7508 0.0953291 37.6741 0.199904C37.5975 0.30448 37.5656 0.435214 37.5853 0.563347L39.0889 14.7817C39.1218 15.0931 39.2771 15.3786 39.5205 15.5755C39.764 15.7723 40.0756 15.8644 40.387 15.8315C40.6983 15.7986 40.9839 15.6433 41.1807 15.3998C41.3776 15.1564 41.4697 14.8447 41.4368 14.5334C41.4349 14.4925 41.4304 14.4518 41.4232 14.4115Z" fill="white"/>
<path d="M28.5279 19.771L16.2556 8.82613C16.1676 8.74051 16.0491 8.69336 15.9264 8.69505C15.8036 8.69674 15.6865 8.74714 15.6008 8.83516C15.5152 8.92318 15.4681 9.04161 15.4698 9.16439C15.4715 9.28717 15.5219 9.40425 15.6099 9.48987L26.8979 21.4597C27.004 21.5726 27.1314 21.6636 27.2727 21.7273C27.414 21.791 27.5664 21.8263 27.7213 21.8312C27.8762 21.836 28.0306 21.8102 28.1755 21.7554C28.3205 21.7006 28.4533 21.6177 28.5663 21.5116C28.6792 21.4055 28.7701 21.2781 28.8339 21.1368C28.8976 20.9955 28.9329 20.8431 28.9378 20.6882C28.9426 20.5332 28.9168 20.3789 28.862 20.2339C28.8071 20.0889 28.7243 19.9562 28.6182 19.8432C28.5776 19.8161 28.5504 19.7935 28.5279 19.771Z" fill="white"/>
<path d="M22.9563 32.3911L0.511278 24.2637C0.411716 24.2505 0.31055 24.2708 0.223842 24.3215C0.137134 24.3722 0.0698318 24.4503 0.0325317 24.5436C-0.0047703 24.6368 -0.00990297 24.7399 0.0179252 24.8364C0.0457534 24.9329 0.104915 25.0174 0.186142 25.0764L22.0849 34.5584C22.3684 34.6622 22.6809 34.6538 22.9584 34.5347C23.2358 34.4157 23.4573 34.195 23.5774 33.918C23.6974 33.6409 23.707 33.3284 23.6041 33.0446C23.5012 32.7607 23.2937 32.5269 23.0241 32.3911H22.9563Z" fill="white"/>
</svg>
