<svg width="96" height="80" viewBox="0 0 96 80" fill="none" xmlns="http://www.w3.org/2000/svg">
<path d="M2.08134 43.1739C-5.58914 64.7892 10.2267 77.8534 12.7186 77.6707C41.0506 75.7592 55.2512 74.3185 61.627 71.372C68.0029 68.4256 97.7473 31.7696 93.563 20.5115C90.2797 11.6316 69.0905 0 69.0905 0C69.0905 0 55.6286 39.9839 46.9395 40.406C38.2503 40.8281 3.68038 38.673 2.08134 43.1739Z" fill="#545466"/>
<path d="M69.7559 4.69968C75.3078 10.1055 91.0059 18.3564 90.8598 22.2322C90.3688 33.88 67.0286 64.7729 65.7623 62.5327C64.4961 60.2924 50.673 41.7087 52.4344 40.1625C57.7104 35.4831 69.7559 4.69968 69.7559 4.69968Z" fill="white"/>
<path d="M47.0974 43.186C51.5089 55.3857 60.4903 63.5675 58.9724 65.5075C57.4546 67.4474 29.0129 73.1333 27.1542 71.1325C25.2954 69.1317 14.7069 43.9774 15.5997 43.1291C16.4926 42.2809 47.0974 43.186 47.0974 43.186Z" fill="#3B3B4D"/>
<path d="M15.9085 52.5773C17.3005 59.1763 21.2453 63.9044 19.6301 65.1138C18.0148 66.3233 9.04561 68.1577 8.18522 67.3095C7.32483 66.4613 3.60326 56.7575 5.17794 53.1049C5.83541 51.5546 14.7599 47.1227 15.9085 52.5773Z" fill="#3B3B4D"/>
</svg>
