<svg width="120" height="95" viewBox="0 0 120 95" fill="none" xmlns="http://www.w3.org/2000/svg">
<path d="M90.6166 60.6203C96.7438 40.6542 95.3396 22.5132 87.4803 20.1013C79.6209 17.6894 68.2825 31.9199 62.1552 51.886C56.028 71.8521 57.4322 89.993 65.2916 92.405C73.1509 94.817 84.4893 80.5864 90.6166 60.6203Z" fill="#303646"/>
<path d="M88.2754 59.9027C94.4027 39.9366 93.4595 21.9371 86.1689 19.6998C78.8782 17.4624 68.0009 31.8344 61.8736 51.8005C55.7464 71.7666 56.6895 89.766 63.9802 92.003C71.2708 94.241 82.1482 79.8688 88.2754 59.9027Z" fill="white"/>
<path d="M86.0745 59.2278C91.49 41.581 90.6566 25.6725 84.213 23.695C77.7694 21.7176 68.1557 34.4201 62.7402 52.067C57.3247 69.7138 58.1581 85.622 64.6018 87.6C71.0454 89.577 80.659 76.8747 86.0745 59.2278Z" fill="#CD2B31"/>
<path d="M83.3356 58.3833C87.7442 44.0178 87.0655 31.0673 81.8199 29.4575C76.5743 27.8477 68.748 38.1883 64.3395 52.5538C59.931 66.9193 60.6096 79.8698 65.8552 81.4796C71.1009 83.0894 78.9271 72.7488 83.3356 58.3833Z" fill="white"/>
<path d="M81.5573 57.0846C85.1435 45.4188 84.5971 34.9002 80.337 33.5906C76.0769 32.2811 69.7163 40.6764 66.1302 52.3422C62.544 64.008 63.0903 74.5266 67.3504 75.8362C71.6105 77.1458 77.9712 68.7504 81.5573 57.0846Z" fill="#CD2B31"/>
<path d="M77.8267 56.6957C80.2213 48.8928 79.8523 41.8583 77.0026 40.9838C74.1529 40.1093 69.9016 45.7259 67.507 53.5288C65.1124 61.3317 65.4814 68.3661 68.3311 69.2406C71.1808 70.1152 75.4321 64.4986 77.8267 56.6957Z" fill="white"/>
<path d="M75.9794 55.3707C77.189 51.4357 77.0043 47.8875 75.5668 47.4456C74.1293 47.0037 71.9833 49.8354 70.7736 53.7705C69.564 57.7055 69.7487 61.2537 71.1862 61.6956C72.6238 62.1375 74.7697 59.3058 75.9794 55.3707Z" fill="#CD2B31"/>
<path d="M68.6613 49.8254C67.7973 50.9227 65.2019 53.8881 65.2587 54.3899C65.3155 54.8917 68.6722 53.8905 68.8376 53.0297C69.0029 52.1689 68.6613 49.8254 68.6613 49.8254Z" fill="#BAB3B4"/>
<path d="M6.88559 21.4289C7.20305 21.3044 11.0715 19.912 11.9449 20.1055C12.5372 20.2707 13.0783 20.5826 13.5183 21.0123C11.014 22.2692 9.46863 23.0427 8.32794 22.4035C7.73504 22.0688 7.28525 21.8503 7.03296 21.7035C6.78068 21.5566 6.73289 21.4913 6.88559 21.4289Z" fill="white"/>
<path opacity="0.09" d="M6.88581 21.4289C7.20327 21.3044 11.0718 19.912 11.9451 20.1055C11.7008 20.615 8.40584 22.344 7.03319 21.7035C6.80362 21.5657 6.73312 21.4913 6.88581 21.4289Z" fill="#1F1F39"/>
<path d="M5.37752 20.5262C5.69021 20.3991 9.56349 19.0093 10.4321 19.2002C11.037 19.374 11.5872 19.7002 12.0298 20.1475C9.52551 21.4044 7.96135 22.1557 6.81621 21.5019C6.22585 21.1625 5.77722 20.9476 5.52494 20.8008C5.27265 20.6539 5.22371 20.585 5.37752 20.5262Z" fill="white"/>
<path opacity="0.09" d="M5.37739 20.5262C5.69009 20.3992 9.56336 19.0093 10.432 19.2003C10.1877 19.7098 8.37355 20.9124 5.52481 20.8008C5.28793 20.6653 5.22358 20.585 5.37739 20.5262Z" fill="#1F1F39"/>
<path d="M3.66914 19.4526C4.32947 19.4106 4.97862 19.2617 5.59121 19.0117L5.61677 19.0039C6.9122 18.498 8.28758 18.0317 8.7237 18.1266C9.37428 18.3376 9.96178 18.7079 10.4328 19.2038C7.92959 20.4643 6.25409 21.0858 5.10673 20.4247C4.51637 20.0852 4.06774 19.8704 3.81545 19.7235L3.73695 19.6755C3.56569 19.5719 3.53361 19.5058 3.66914 19.4526Z" fill="white"/>
<path opacity="0.09" d="M3.66905 19.4526C4.32938 19.4106 4.97853 19.2617 5.59112 19.0117L5.61668 19.0039C6.94325 18.5085 8.3388 18.056 8.77492 18.151C8.53065 18.6605 6.0648 19.7419 3.86412 19.7526L3.73798 19.6792C3.56561 19.5719 3.53352 19.5058 3.66905 19.4526Z" fill="#1F1F39"/>
<path d="M1.97274 18.4038C2.2902 18.2793 6.15867 16.8869 7.03091 17.0767C7.67246 17.2833 8.2537 17.6439 8.72383 18.1268C6.21952 19.3837 4.55658 20.0333 3.4151 19.3784C2.8222 19.0437 2.3724 18.8252 2.12012 18.6784C1.86783 18.5315 1.81894 18.4625 1.97274 18.4038Z" fill="white"/>
<path opacity="0.23" d="M1.97273 18.4037C2.29019 18.2792 6.15865 16.8868 7.03089 17.0766C6.78662 17.5861 3.99771 17.9075 2.1201 18.6783C1.89053 18.5405 1.81892 18.4625 1.97273 18.4037Z" fill="#1F1F39"/>
<path d="M5.87678 16.118C5.97088 16.3668 6.12991 16.5859 6.33731 16.7525C7.54149 17.8235 67.377 53.977 67.5282 54.1985C67.5393 54.2351 67.607 54.2344 67.6885 54.2136C67.8021 54.1837 67.9102 54.136 68.0088 54.0723C68.5097 53.7762 69.1232 53.1025 68.4539 52.5035C68.3937 52.4487 68.3292 52.3989 68.2609 52.3546C68.2609 52.3546 8.7174 15.166 7.54137 15.0407C6.60875 14.9411 5.64571 15.3978 5.87678 16.118Z" fill="#543237"/>
<path d="M11.8056 13.3085C11.8366 13.6465 12.351 17.7262 12.9163 18.4166C13.3325 18.871 13.8567 19.2128 14.4404 19.4103C14.4296 16.6187 14.4262 14.875 13.3298 14.1584C12.7609 13.7845 12.3654 13.4816 12.1193 13.3289C11.8732 13.1762 11.7871 13.1425 11.8056 13.3085Z" fill="white"/>
<path opacity="0.09" d="M11.8057 13.3084C11.8366 13.6464 12.351 17.7261 12.9164 18.4165C13.2615 17.9761 13.3083 14.2448 12.116 13.3178C11.8856 13.1643 11.7871 13.1424 11.8057 13.3084Z" fill="#1F1F39"/>
<path d="M10.314 12.3688C10.345 12.7067 10.8593 16.7864 11.4247 17.4768C11.8536 17.9364 12.3934 18.2781 12.9922 18.4692C12.9815 15.6777 12.9382 13.9341 11.836 13.2114C11.2671 12.8374 10.8715 12.5346 10.6254 12.3818C10.3793 12.2291 10.2966 12.2064 10.314 12.3688Z" fill="white"/>
<path opacity="0.09" d="M10.3142 12.3687C10.3451 12.7066 10.8595 16.7863 11.4248 17.4768C11.77 17.0364 12.0159 14.8655 10.6233 12.3745C10.3952 12.2283 10.2967 12.2063 10.3142 12.3687Z" fill="#1F1F39"/>
<path d="M8.58204 11.3345C8.84579 11.9405 9.00833 12.5857 9.06319 13.2443C9.06319 13.2443 9.06875 13.2626 9.07209 13.2735C9.20838 14.6535 9.41442 16.092 9.70004 16.4403C10.1825 16.9236 10.7777 17.279 11.432 17.4746C11.4213 14.683 11.2135 12.8976 10.1113 12.1749C9.54129 11.7973 9.14575 11.4944 8.90443 11.3442L8.82594 11.2962C8.64149 11.1886 8.56903 11.1867 8.58204 11.3345Z" fill="white"/>
<path opacity="0.09" d="M8.58204 11.3344C8.84578 11.9404 9.00832 12.5856 9.06319 13.2442C9.06319 13.2442 9.06874 13.2625 9.07208 13.2735C9.23188 14.6782 9.46064 16.1258 9.74515 16.4704C10.0903 16.0301 9.9321 13.3313 8.94476 11.3718L8.82371 11.2888C8.64148 11.1886 8.56903 11.1866 8.58204 11.3344Z" fill="#1F1F39"/>
<path d="M6.87694 10.2962C6.90899 10.6378 7.42337 14.7175 7.99128 15.4031C8.46477 15.8838 9.0491 16.2408 9.69292 16.4426C9.68217 13.6511 9.49746 11.8627 8.40254 11.1377C7.83364 10.7638 7.4381 10.4609 7.19201 10.3082C6.94592 10.1554 6.86314 10.1327 6.87694 10.2962Z" fill="white"/>
<path opacity="0.23" d="M6.87676 10.2961C6.90881 10.6377 7.4232 14.7173 7.99111 15.403C8.33626 14.9626 7.35473 12.3266 7.19072 10.3044C6.96148 10.1545 6.86296 10.1326 6.87676 10.2961Z" fill="#1F1F39"/>
<path opacity="0.47" d="M5.87695 16.118C5.97105 16.3668 6.13008 16.5859 6.33748 16.7525C7.54166 17.8235 67.3771 53.977 67.5283 54.1985C67.5725 54.265 67.7794 54.21 68.009 54.0723C60.9999 49.5767 11.4409 19.2885 5.87695 16.118Z" fill="#1F1F39"/>
<path d="M65.109 54.6191C65.0474 55.3486 72.6474 56.6939 73.2418 56.2855L73.2674 56.2777C73.6736 55.8148 69.049 49.7474 68.6648 49.8363C68.2806 49.9253 68.1034 52.0593 67.5562 53.0562L67.5379 53.0618C66.9888 54.0393 65.148 54.1042 65.109 54.6191Z" fill="white"/>
<path opacity="0.22" d="M65.109 54.6191C65.0474 55.3485 72.6473 56.6938 73.2418 56.2854C71.0032 54.5309 68.8186 53.3868 67.539 53.0654C66.9888 54.0393 65.148 54.1041 65.109 54.6191Z" fill="#1F1F39"/>
</svg>
